<svg width="26" height="26" viewBox="0 0 26 26" fill="none" xmlns="http://www.w3.org/2000/svg">
<g clip-path="url(#clip0_447_409)">
<path d="M23.1111 9.38889H17.3333C16.9502 9.38889 16.5828 9.54107 16.312 9.81195C16.0411 10.0828 15.8889 10.4502 15.8889 10.8333V21.6667C15.8889 22.0498 16.0411 22.4172 16.312 22.688C16.5828 22.9589 16.9502 23.1111 17.3333 23.1111H23.1111C23.4942 23.1111 23.8616 22.9589 24.1325 22.688C24.4034 22.4172 24.5556 22.0498 24.5556 21.6667V10.8333C24.5556 10.4502 24.4034 10.0828 24.1325 9.81195C23.8616 9.54107 23.4942 9.38889 23.1111 9.38889ZM23.1111 10.8333V18.7778H17.3333V10.8333H23.1111ZM17.3333 21.6667V19.9333H23.1111V21.6667H17.3333Z" fill="#0E3151"/>
<path d="M14.4445 15.8889H2.8889V4.33333H20.2222V7.94444H21.6667V4.33333C21.6667 3.95024 21.5145 3.58284 21.2436 3.31195C20.9727 3.04107 20.6053 2.88889 20.2222 2.88889H2.8889C2.50581 2.88889 2.13841 3.04107 1.86753 3.31195C1.59664 3.58284 1.44446 3.95024 1.44446 4.33333V15.8889C1.44446 16.272 1.59664 16.6394 1.86753 16.9103C2.13841 17.1811 2.50581 17.3333 2.8889 17.3333H14.4445V15.8889Z" fill="#0E3151"/>
<path d="M14.4444 18.7778H6.49999C6.30845 18.7778 6.12475 18.8539 5.98931 18.9893C5.85386 19.1247 5.77777 19.3084 5.77777 19.5C5.77777 19.6915 5.85386 19.8752 5.98931 20.0107C6.12475 20.1461 6.30845 20.2222 6.49999 20.2222H14.4444V18.7778Z" fill="#0E3151"/>
</g>
<defs>
<clipPath id="clip0_447_409">
<rect width="26" height="26" fill="white"/>
</clipPath>
</defs>
</svg>
