<svg width="45" height="45" viewBox="0 0 45 45" fill="none" xmlns="http://www.w3.org/2000/svg">
<path d="M25.6815 8.17875C25.8924 7.96778 26.0109 7.68168 26.0109 7.38338C26.0109 7.08507 25.8924 6.79897 25.6815 6.588L20.9092 1.81575C20.6971 1.61082 20.4129 1.49743 20.1179 1.49999C19.823 1.50256 19.5408 1.62087 19.3322 1.82945C19.1236 2.03804 19.0053 2.3202 19.0027 2.61517C19.0002 2.91015 19.1136 3.19432 19.3185 3.4065L21.5617 5.64975C18.1032 5.84199 14.7876 7.0939 12.0651 9.2355C9.34256 11.3771 7.34504 14.3046 6.34373 17.6207C5.34242 20.9367 5.38581 24.4805 6.46803 27.771C7.55025 31.0615 9.61886 33.9392 12.393 36.0135C12.6317 36.1925 12.9317 36.2694 13.2271 36.2272C13.5225 36.185 13.789 36.0272 13.968 35.7885C14.147 35.5498 14.2239 35.2498 14.1817 34.9544C14.1395 34.659 13.9817 34.3925 13.743 34.2135C11.2725 32.3669 9.44909 29.7865 8.53337 26.8413C7.61766 23.896 7.65654 20.7366 8.64447 17.8148C9.63239 14.893 11.5188 12.3583 14.034 10.573C16.5491 8.7878 19.5643 7.84346 22.6485 7.875C22.704 7.875 22.7587 7.87125 22.8127 7.86375L19.3185 11.3602C19.1136 11.5724 19.0002 11.8566 19.0027 12.1516C19.0053 12.4465 19.1236 12.7287 19.3322 12.9373C19.5408 13.1459 19.823 13.2642 20.1179 13.2668C20.4129 13.2693 20.6971 13.1559 20.9092 12.951L25.6815 8.17875ZM19.3185 36.8168C19.1076 37.0277 18.9891 37.3138 18.9891 37.6121C18.9891 37.9104 19.1076 38.1965 19.3185 38.4075L24.0907 43.1798C24.3029 43.3847 24.5871 43.4981 24.8821 43.4955C25.177 43.4929 25.4592 43.3746 25.6678 43.166C25.8764 42.9575 25.9947 42.6753 25.9973 42.3803C25.9998 42.0854 25.8864 41.8012 25.6815 41.589L23.4382 39.3458C26.8968 39.1535 30.2124 37.9016 32.9349 35.76C35.6574 33.6184 37.655 30.6909 38.6563 27.3749C39.6576 24.0588 39.6142 20.515 38.532 17.2245C37.4497 13.934 35.3811 11.0563 32.607 8.982C32.4888 8.89336 32.3543 8.82886 32.2112 8.7922C32.0681 8.75553 31.9192 8.74741 31.7729 8.76831C31.6266 8.7892 31.4859 8.8387 31.3588 8.91397C31.2317 8.98924 31.1206 9.08881 31.032 9.207C30.9434 9.32519 30.8789 9.45968 30.8422 9.6028C30.8055 9.74591 30.7974 9.89485 30.8183 10.0411C30.8392 10.1874 30.8887 10.3281 30.964 10.4552C31.0392 10.5823 31.1388 10.6934 31.257 10.782C31.8105 11.1975 32.3385 11.655 32.841 12.1545C34.8969 14.2085 36.2943 16.8285 36.8548 19.6801C37.4153 22.5316 37.1136 25.4856 35.9881 28.1649C34.8625 30.8443 32.9642 33.1276 30.5355 34.7234C28.1067 36.3193 25.2575 37.1554 22.3515 37.125L22.185 37.134L25.6815 33.6375C25.7889 33.5337 25.8747 33.4096 25.9336 33.2723C25.9926 33.1351 26.0236 32.9875 26.0249 32.8381C26.0262 32.6887 25.9977 32.5406 25.9412 32.4023C25.8846 32.264 25.8011 32.1384 25.6954 32.0328C25.5898 31.9272 25.4642 31.8436 25.3259 31.7871C25.1877 31.7305 25.0396 31.702 24.8902 31.7033C24.7408 31.7046 24.5932 31.7357 24.4559 31.7946C24.3187 31.8536 24.1945 31.9393 24.0907 32.0468L19.3185 36.8168Z" fill="white"/>
<path d="M17.2476 19.5435H15.717V27.1966H29.4925V19.5435H28.3445M25.2833 18.7782C25.5828 18.9514 25.8393 19.19 26.0336 19.4763C26.2279 19.7626 26.3551 20.089 26.4055 20.4313C26.4558 20.7736 26.4282 21.1229 26.3247 21.453C26.2211 21.7831 26.0443 22.0856 25.8074 22.3377C25.5705 22.5899 25.2797 22.7853 24.9567 22.9092C24.6337 23.0332 24.2868 23.0826 23.942 23.0536C23.5973 23.0247 23.2635 22.9182 22.9657 22.7422C22.6678 22.5661 22.4136 22.325 22.2221 22.0369M23.37 18.0129C23.37 18.6218 23.1282 19.2058 22.6976 19.6363C22.267 20.0669 21.683 20.3088 21.0741 20.3088C20.4652 20.3088 19.8812 20.0669 19.4507 19.6363C19.0201 19.2058 18.7782 18.6218 18.7782 18.0129C18.7782 17.404 19.0201 16.82 19.4507 16.3894C19.8812 15.9589 20.4652 15.717 21.0741 15.717C21.683 15.717 22.267 15.9589 22.6976 16.3894C23.1282 16.82 23.37 17.404 23.37 18.0129Z" stroke="white" stroke-width="1.93878" stroke-linecap="round" stroke-linejoin="round"/>
</svg>
