<svg width="269" height="149" viewBox="0 0 269 149" fill="none" xmlns="http://www.w3.org/2000/svg">
<circle cx="154" cy="64" r="46" fill="#94DB90" fill-opacity="0.46"/>
<path fill-rule="evenodd" clip-rule="evenodd" d="M172.231 50.7809C172.723 51.2805 173 51.9581 173 52.6645C173 53.371 172.723 54.0485 172.231 54.5481L152.545 74.5172C152.285 74.7812 151.976 74.9905 151.636 75.1334C151.296 75.2763 150.932 75.3498 150.564 75.3498C150.196 75.3498 149.832 75.2763 149.492 75.1334C149.152 74.9905 148.843 74.7812 148.583 74.5172L138.802 64.5975C138.551 64.3517 138.351 64.0577 138.213 63.7327C138.076 63.4077 138.003 63.0581 138 62.7043C137.997 62.3506 138.064 61.9997 138.196 61.6723C138.328 61.3449 138.523 61.0474 138.769 60.7973C139.016 60.5471 139.309 60.3493 139.632 60.2153C139.955 60.0814 140.301 60.014 140.649 60.0171C140.998 60.0201 141.343 60.0936 141.663 60.2333C141.983 60.3729 142.273 60.5758 142.516 60.8303L150.563 68.9934L168.515 50.7809C168.759 50.5334 169.049 50.337 169.368 50.203C169.687 50.069 170.028 50 170.373 50C170.718 50 171.06 50.069 171.379 50.203C171.698 50.337 171.987 50.5334 172.231 50.7809Z" fill="#0E3151"/>
<g clip-path="url(#clip0_782_1169)">
<path d="M80.4761 24.778L80.5748 18.4179L75.7672 14.2557C75.6571 14.1603 75.579 14.0334 75.5435 13.8921C75.508 13.7508 75.5168 13.602 75.5688 13.4659C75.6207 13.3298 75.7133 13.2129 75.8339 13.1312C75.9545 13.0495 76.0974 13.0069 76.243 13.0091L82.6031 13.1079L86.7658 8.29898C86.8612 8.18887 86.9882 8.11076 87.1295 8.07526C87.2708 8.03975 87.4196 8.04858 87.5557 8.10053C87.6918 8.15248 87.8086 8.24504 87.8903 8.36566C87.972 8.48628 88.0147 8.62911 88.0124 8.77478L87.9132 15.1362L92.7221 19.2989C92.8322 19.3943 92.9103 19.5213 92.9458 19.6626C92.9813 19.8038 92.9725 19.9526 92.9205 20.0888C92.8686 20.2249 92.776 20.3417 92.6554 20.4234C92.5348 20.5051 92.3919 20.5477 92.2463 20.5455L85.8849 20.4463L81.7226 25.2538C81.6272 25.3639 81.5003 25.442 81.359 25.4775C81.2177 25.513 81.0689 25.5042 80.9328 25.4522C80.7967 25.4003 80.6798 25.3077 80.5981 25.1871C80.5164 25.0665 80.4738 24.9237 80.4761 24.778Z" stroke="#0E3151" stroke-width="1.57143" stroke-linecap="round" stroke-linejoin="round"/>
</g>
<g clip-path="url(#clip1_782_1169)">
<path d="M233.335 34.8947L230.288 33.9842L227.632 35.7331C227.572 35.7732 227.5 35.7935 227.427 35.7914C227.354 35.7894 227.284 35.7649 227.225 35.7215C227.167 35.678 227.123 35.6176 227.1 35.5485C227.077 35.4793 227.076 35.4048 227.097 35.335L228.007 32.2877L226.258 29.632C226.218 29.5711 226.198 29.4994 226.2 29.4266C226.202 29.3538 226.226 29.2834 226.27 29.2249C226.313 29.1665 226.374 29.1228 226.443 29.0999C226.512 29.0769 226.586 29.0758 226.656 29.0966L229.704 30.0075L232.36 28.258C232.421 28.218 232.492 28.1976 232.565 28.1997C232.638 28.2018 232.708 28.2262 232.767 28.2697C232.825 28.3131 232.869 28.3735 232.892 28.4427C232.915 28.5118 232.916 28.5863 232.895 28.6561L231.984 31.704L233.733 34.3593C233.773 34.4202 233.794 34.4918 233.791 34.5647C233.789 34.6375 233.765 34.7079 233.721 34.7663C233.678 34.8248 233.618 34.8685 233.548 34.8914C233.479 34.9144 233.405 34.9155 233.335 34.8947Z" stroke="#0E3151" stroke-width="1.57143" stroke-linecap="round" stroke-linejoin="round"/>
</g>
<g clip-path="url(#clip2_782_1169)">
<path d="M185.405 146.229L183.868 140.057L178.153 137.269C178.022 137.205 177.914 137.102 177.843 136.975C177.773 136.847 177.743 136.701 177.758 136.556C177.774 136.411 177.833 136.275 177.929 136.165C178.024 136.055 178.151 135.977 178.293 135.942L184.465 134.404L187.254 128.688C187.317 128.557 187.42 128.449 187.548 128.378C187.675 128.308 187.821 128.278 187.966 128.293C188.111 128.309 188.247 128.368 188.357 128.464C188.467 128.559 188.545 128.686 188.58 128.828L190.118 135.001L195.834 137.79C195.965 137.854 196.073 137.957 196.144 138.084C196.214 138.211 196.244 138.358 196.229 138.502C196.213 138.647 196.154 138.784 196.058 138.894C195.963 139.004 195.836 139.082 195.694 139.117L189.521 140.654L186.732 146.369C186.668 146.5 186.566 146.608 186.438 146.679C186.311 146.749 186.165 146.779 186.02 146.764C185.875 146.749 185.738 146.689 185.628 146.593C185.518 146.498 185.44 146.371 185.405 146.229Z" stroke="#0E3151" stroke-width="1.57143" stroke-linecap="round" stroke-linejoin="round"/>
</g>
<g clip-path="url(#clip3_782_1169)">
<path d="M21.2749 64.5876L15.1803 62.7668L9.86967 66.2646C9.74798 66.3447 9.6046 66.3854 9.45897 66.3812C9.31334 66.3771 9.17252 66.3282 9.05562 66.2413C8.93871 66.1543 8.85138 66.0335 8.80547 65.8953C8.75956 65.757 8.75729 65.608 8.79898 65.4684L10.6198 59.3737L7.12091 54.0623C7.04081 53.9406 7.00008 53.7972 7.00425 53.6516C7.00842 53.506 7.05728 53.3651 7.14422 53.2482C7.23115 53.1313 7.35195 53.044 7.49021 52.9981C7.62847 52.9522 7.77751 52.9499 7.91711 52.9916L14.0129 54.8133L19.3243 51.3144C19.446 51.2343 19.5894 51.1935 19.735 51.1977C19.8807 51.2019 20.0215 51.2507 20.1384 51.3377C20.2553 51.4246 20.3426 51.5454 20.3885 51.6837C20.4345 51.8219 20.4367 51.971 20.395 52.1106L18.5734 58.2064L22.0711 63.517C22.1512 63.6386 22.1919 63.782 22.1878 63.9277C22.1836 64.0733 22.1347 64.2141 22.0478 64.331C21.9609 64.4479 21.8401 64.5352 21.7018 64.5812C21.5635 64.6271 21.4145 64.6293 21.2749 64.5876Z" stroke="#0E3151" stroke-width="1.57143" stroke-linecap="round" stroke-linejoin="round"/>
</g>
<g clip-path="url(#clip4_782_1169)">
<path fill-rule="evenodd" clip-rule="evenodd" d="M53.6351 88.9209C52.2236 89.6758 52.5059 91.8612 54.0629 92.2327L61.1375 93.9172L64.4982 100.626C65.2385 102.102 67.3365 101.831 67.6775 100.215L69.2235 92.8729L75.6379 89.4462C77.0495 88.6913 76.7672 86.5059 75.2102 86.1344L68.1356 84.45L64.7749 77.7412C64.0346 76.265 61.9365 76.5359 61.5956 78.1519L60.0496 85.4943L53.6351 88.9209Z" fill="#0E3151"/>
</g>
<g clip-path="url(#clip5_782_1169)">
<path fill-rule="evenodd" clip-rule="evenodd" d="M239.501 102.671C238.09 103.426 238.372 105.612 239.929 105.983L247.003 107.668L250.364 114.376C251.104 115.853 253.202 115.582 253.543 113.966L255.089 106.623L261.504 103.197C262.915 102.442 262.633 100.256 261.076 99.8848L254.001 98.2003L250.641 91.4916C249.9 90.0153 247.802 90.2863 247.461 91.9022L245.915 99.2447L239.501 102.671Z" fill="#0E3151"/>
</g>
<g clip-path="url(#clip6_782_1169)">
<path fill-rule="evenodd" clip-rule="evenodd" d="M254.71 3.82277C253.9 2.96658 252.441 3.58915 252.498 4.76621L252.763 10.1139L248.788 13.7957C247.914 14.6064 248.527 16.0435 249.717 15.9733L255.125 15.6523L258.803 19.544C259.612 20.4002 261.072 19.7776 261.014 18.6006L260.75 13.2529L264.724 9.57108C265.599 8.76032 264.986 7.32331 263.795 7.39343L258.387 7.71442L254.71 3.82277Z" fill="#0E3151"/>
</g>
<g clip-path="url(#clip7_782_1169)">
<path fill-rule="evenodd" clip-rule="evenodd" d="M74.9241 132.159C74.4251 131.626 73.5333 132.007 73.5727 132.736L73.7529 136.048L71.3308 138.314C70.798 138.813 71.1784 139.704 71.9074 139.665L75.2192 139.485L77.4852 141.907C77.9841 142.44 78.8759 142.059 78.8366 141.33L78.6564 138.018L81.0784 135.753C81.6113 135.254 81.2308 134.362 80.5019 134.401L77.19 134.581L74.9241 132.159Z" fill="#0E3151"/>
</g>
<defs>
<clipPath id="clip0_782_1169">
<rect width="20" height="20" fill="white" transform="translate(71.3354 22.5537) rotate(-69.1089)"/>
</clipPath>
<clipPath id="clip1_782_1169">
<rect width="10" height="10" fill="white" transform="translate(231.024 38.9917) rotate(-143.364)"/>
</clipPath>
<clipPath id="clip2_782_1169">
<rect width="20" height="20" fill="white" transform="translate(176 146.426) rotate(-83.9853)"/>
</clipPath>
<clipPath id="clip3_782_1169">
<rect width="20" height="20" fill="white" transform="translate(16.6538 72.7817) rotate(-143.364)"/>
</clipPath>
<clipPath id="clip4_782_1169">
<rect width="25" height="24" fill="white" transform="translate(54.3364 103.118) rotate(-97.3592)"/>
</clipPath>
<clipPath id="clip5_782_1169">
<rect width="25" height="24" fill="white" transform="translate(240.202 116.868) rotate(-97.3592)"/>
</clipPath>
<clipPath id="clip6_782_1169">
<rect width="18" height="17.7249" fill="white" transform="translate(245 7.06317) rotate(-23.1038)"/>
</clipPath>
<clipPath id="clip7_782_1169">
<rect width="11" height="11" fill="white" transform="translate(68.9875 134.132) rotate(-23.1038)"/>
</clipPath>
</defs>
</svg>
